<?xml version="1.0" encoding="UTF-8" standalone="no"?>
<!DOCTYPE svg PUBLIC "-//W3C//DTD SVG 1.1//EN"
 "http://www.w3.org/Graphics/SVG/1.1/DTD/svg11.dtd">
<!-- Generated by graphviz version 2.40.1 (20161225.0304)
 -->
<!-- Title: dependencies Pages: 1 -->
<svg width="590pt" height="287pt"
 viewBox="0.00 0.00 590.00 287.00" xmlns="http://www.w3.org/2000/svg" xmlns:xlink="http://www.w3.org/1999/xlink">
<g id="graph0" class="graph" transform="scale(1 1) rotate(0) translate(4 283)">
<title>dependencies</title>
<polygon fill="#ffffff" stroke="transparent" points="-4,4 -4,-283 586,-283 586,4 -4,4"/>
<text text-anchor="start" x="270.0091" y="-42.4" font-family="sans-serif" font-weight="bold" font-size="14.00" fill="#000000">Legend</text>
<polygon fill="#ffffb3" stroke="transparent" points="57,-10 57,-30 77,-30 77,-10 57,-10"/>
<text text-anchor="start" x="80.629" y="-15.4" font-family="sans-serif" font-size="14.00" fill="#000000"> &#160;Declarations</text>
<polygon fill="#8dd3c7" stroke="transparent" points="170,-10 170,-30 190,-30 190,-10 170,-10"/>
<text text-anchor="start" x="193.7251" y="-15.4" font-family="sans-serif" font-size="14.00" fill="#000000"> &#160;Module</text>
<polygon fill="#80b1d3" stroke="transparent" points="256,-10 256,-30 276,-30 276,-10 256,-10"/>
<text text-anchor="start" x="279.7812" y="-15.4" font-family="sans-serif" font-size="14.00" fill="#000000"> &#160;Bootstrap</text>
<polygon fill="#fdb462" stroke="transparent" points="353,-10 353,-30 373,-30 373,-10 353,-10"/>
<text text-anchor="start" x="376.6732" y="-15.4" font-family="sans-serif" font-size="14.00" fill="#000000"> &#160;Providers</text>
<polygon fill="#fb8072" stroke="transparent" points="449,-10 449,-30 469,-30 469,-10 449,-10"/>
<text text-anchor="start" x="472.7258" y="-15.4" font-family="sans-serif" font-size="14.00" fill="#000000"> &#160;Exports</text>
<g id="clust1" class="cluster">
<title>cluster_CloukitCommonModule</title>
<polygon fill="none" stroke="#000000" stroke-dasharray="1,5" points="8,-78 8,-203 414,-203 414,-78 8,-78"/>
</g>
<g id="clust4" class="cluster">
<title>cluster_CloukitCommonModule_exports</title>
<polygon fill="none" stroke="#000000" points="16,-143 16,-195 406,-195 406,-143 16,-143"/>
</g>
<g id="clust7" class="cluster">
<title>cluster_DemoModule</title>
<polygon fill="none" stroke="#000000" stroke-dasharray="1,5" points="422,-70 422,-271 574,-271 574,-70 422,-70"/>
</g>
<g id="clust9" class="cluster">
<title>cluster_DemoModule_imports</title>
<polygon fill="none" stroke="#000000" points="432,-78 432,-130 560,-130 560,-78 432,-78"/>
</g>
<g id="clust10" class="cluster">
<title>cluster_DemoModule_exports</title>
<polygon fill="none" stroke="#000000" points="430,-211 430,-263 566,-263 566,-211 430,-211"/>
</g>
<!-- CloukitHasFocusDirective  -->
<g id="node1" class="node">
<title>CloukitHasFocusDirective </title>
<polygon fill="#fb8072" stroke="#000000" points="398.2989,-187 229.7011,-187 229.7011,-151 398.2989,-151 398.2989,-187"/>
<text text-anchor="middle" x="314" y="-164.8" font-family="Times,serif" font-size="14.00" fill="#000000">CloukitHasFocusDirective </text>
</g>
<!-- CloukitClickOutsideDirective  -->
<g id="node2" class="node">
<title>CloukitClickOutsideDirective </title>
<polygon fill="#fb8072" stroke="#000000" points="211.9712,-187 24.0288,-187 24.0288,-151 211.9712,-151 211.9712,-187"/>
<text text-anchor="middle" x="118" y="-164.8" font-family="Times,serif" font-size="14.00" fill="#000000">CloukitClickOutsideDirective </text>
</g>
<!-- CloukitCommonModule -->
<g id="node3" class="node">
<title>CloukitCommonModule</title>
<polygon fill="#8dd3c7" stroke="#000000" points="390.6763,-122 387.6763,-126 366.6763,-126 363.6763,-122 237.3237,-122 237.3237,-86 390.6763,-86 390.6763,-122"/>
<text text-anchor="middle" x="314" y="-99.8" font-family="Times,serif" font-size="14.00" fill="#000000">CloukitCommonModule</text>
</g>
<!-- CloukitCommonModule&#45;&gt;CloukitHasFocusDirective  -->
<g id="edge1" class="edge">
<title>CloukitCommonModule&#45;&gt;CloukitHasFocusDirective </title>
<path fill="none" stroke="#000000" stroke-dasharray="5,2" d="M314,-122.1061C314,-122.1061 314,-140.991 314,-140.991"/>
<polygon fill="#000000" stroke="#000000" points="310.5001,-140.9909 314,-150.991 317.5001,-140.991 310.5001,-140.9909"/>
</g>
<!-- CloukitCommonModule&#45;&gt;CloukitClickOutsideDirective  -->
<g id="edge2" class="edge">
<title>CloukitCommonModule&#45;&gt;CloukitClickOutsideDirective </title>
<path fill="none" stroke="#000000" stroke-dasharray="5,2" d="M237.0982,-104C182.1876,-104 118,-104 118,-104 118,-104 118,-140.8939 118,-140.8939"/>
<polygon fill="#000000" stroke="#000000" points="114.5001,-140.8938 118,-150.8939 121.5001,-140.8939 114.5001,-140.8938"/>
</g>
<!-- DemoModule -->
<g id="node5" class="node">
<title>DemoModule</title>
<polygon fill="#8dd3c7" stroke="#000000" points="542.7619,-187 539.7619,-191 518.7619,-191 515.7619,-187 449.2381,-187 449.2381,-151 542.7619,-151 542.7619,-187"/>
<text text-anchor="middle" x="496" y="-164.8" font-family="Times,serif" font-size="14.00" fill="#000000">DemoModule</text>
</g>
<!-- CloukitCommonModule&#45;&gt;DemoModule -->
<g id="edge4" class="edge">
<title>CloukitCommonModule&#45;&gt;DemoModule</title>
<path fill="none" stroke="#000000" d="M390.7252,-104C406.5149,-104 418.4387,-104 418.4387,-104 418.4387,-104 418.4387,-169 418.4387,-169 418.4387,-169 439.0929,-169 439.0929,-169"/>
<polygon fill="#000000" stroke="#000000" points="439.093,-172.5001 449.0929,-169 439.0929,-165.5001 439.093,-172.5001"/>
</g>
<!-- CommonModule -->
<g id="node4" class="node">
<title>CommonModule</title>
<polygon fill="#8dd3c7" stroke="#000000" points="551.6681,-122 548.6681,-126 527.6681,-126 524.6681,-122 440.3319,-122 440.3319,-86 551.6681,-86 551.6681,-122"/>
<text text-anchor="middle" x="496" y="-99.8" font-family="Times,serif" font-size="14.00" fill="#000000">CommonModule</text>
</g>
<!-- CommonModule&#45;&gt;DemoModule -->
<g id="edge3" class="edge">
<title>CommonModule&#45;&gt;DemoModule</title>
<path fill="none" stroke="#000000" d="M496,-122.1061C496,-122.1061 496,-140.991 496,-140.991"/>
<polygon fill="#000000" stroke="#000000" points="492.5001,-140.9909 496,-150.991 499.5001,-140.991 492.5001,-140.9909"/>
</g>
<!-- DemoComponent  -->
<g id="node6" class="node">
<title>DemoComponent </title>
<polygon fill="#fb8072" stroke="#000000" points="557.5442,-255 438.4558,-255 438.4558,-219 557.5442,-219 557.5442,-255"/>
<text text-anchor="middle" x="498" y="-232.8" font-family="Times,serif" font-size="14.00" fill="#000000">DemoComponent </text>
</g>
<!-- DemoModule&#45;&gt;DemoComponent  -->
<g id="edge5" class="edge">
<title>DemoModule&#45;&gt;DemoComponent </title>
<path fill="none" stroke="#000000" stroke-dasharray="5,2" d="M496,-187.2228C496,-187.2228 496,-208.7269 496,-208.7269"/>
<polygon fill="#000000" stroke="#000000" points="492.5001,-208.7269 496,-218.7269 499.5001,-208.727 492.5001,-208.7269"/>
</g>
</g>
</svg>
