<?xml version="1.0" encoding="UTF-8" standalone="no"?>
<!DOCTYPE svg PUBLIC "-//W3C//DTD SVG 1.1//EN"
 "http://www.w3.org/Graphics/SVG/1.1/DTD/svg11.dtd">
<!-- Generated by graphviz version 2.40.1 (20161225.0304)
 -->
<!-- Title: dependencies Pages: 1 -->
<svg width="504pt" height="211pt"
 viewBox="0.00 0.00 504.00 211.00" xmlns="http://www.w3.org/2000/svg" xmlns:xlink="http://www.w3.org/1999/xlink">
<g id="graph0" class="graph" transform="scale(1 1) rotate(0) translate(4 207)">
<title>dependencies</title>
<polygon fill="#ffffff" stroke="transparent" points="-4,4 -4,-207 500,-207 500,4 -4,4"/>
<text text-anchor="start" x="227.0091" y="-42.4" font-family="sans-serif" font-weight="bold" font-size="14.00" fill="#000000">Legend</text>
<polygon fill="#ffffb3" stroke="transparent" points="14,-10 14,-30 34,-30 34,-10 14,-10"/>
<text text-anchor="start" x="37.629" y="-15.4" font-family="sans-serif" font-size="14.00" fill="#000000"> &#160;Declarations</text>
<polygon fill="#8dd3c7" stroke="transparent" points="127,-10 127,-30 147,-30 147,-10 127,-10"/>
<text text-anchor="start" x="150.7251" y="-15.4" font-family="sans-serif" font-size="14.00" fill="#000000"> &#160;Module</text>
<polygon fill="#80b1d3" stroke="transparent" points="213,-10 213,-30 233,-30 233,-10 213,-10"/>
<text text-anchor="start" x="236.7812" y="-15.4" font-family="sans-serif" font-size="14.00" fill="#000000"> &#160;Bootstrap</text>
<polygon fill="#fdb462" stroke="transparent" points="310,-10 310,-30 330,-30 330,-10 310,-10"/>
<text text-anchor="start" x="333.6732" y="-15.4" font-family="sans-serif" font-size="14.00" fill="#000000"> &#160;Providers</text>
<polygon fill="#fb8072" stroke="transparent" points="406,-10 406,-30 426,-30 426,-10 406,-10"/>
<text text-anchor="start" x="429.7258" y="-15.4" font-family="sans-serif" font-size="14.00" fill="#000000"> &#160;Exports</text>
<g id="clust1" class="cluster">
<title>cluster_CloukitCommonModule</title>
<polygon fill="none" stroke="#000000" stroke-dasharray="1,5" points="45,-70 45,-195 451,-195 451,-70 45,-70"/>
</g>
<g id="clust4" class="cluster">
<title>cluster_CloukitCommonModule_exports</title>
<polygon fill="none" stroke="#000000" points="53,-135 53,-187 443,-187 443,-135 53,-135"/>
</g>
<!-- CloukitHasFocusDirective  -->
<g id="node1" class="node">
<title>CloukitHasFocusDirective </title>
<polygon fill="#fb8072" stroke="#000000" points="435.2989,-179 266.7011,-179 266.7011,-143 435.2989,-143 435.2989,-179"/>
<text text-anchor="middle" x="351" y="-156.8" font-family="Times,serif" font-size="14.00" fill="#000000">CloukitHasFocusDirective </text>
</g>
<!-- CloukitClickOutsideDirective  -->
<g id="node2" class="node">
<title>CloukitClickOutsideDirective </title>
<polygon fill="#fb8072" stroke="#000000" points="248.9712,-179 61.0288,-179 61.0288,-143 248.9712,-143 248.9712,-179"/>
<text text-anchor="middle" x="155" y="-156.8" font-family="Times,serif" font-size="14.00" fill="#000000">CloukitClickOutsideDirective </text>
</g>
<!-- CloukitCommonModule -->
<g id="node3" class="node">
<title>CloukitCommonModule</title>
<polygon fill="#8dd3c7" stroke="#000000" points="329.6763,-114 326.6763,-118 305.6763,-118 302.6763,-114 176.3237,-114 176.3237,-78 329.6763,-78 329.6763,-114"/>
<text text-anchor="middle" x="253" y="-91.8" font-family="Times,serif" font-size="14.00" fill="#000000">CloukitCommonModule</text>
</g>
<!-- CloukitCommonModule&#45;&gt;CloukitHasFocusDirective  -->
<g id="edge1" class="edge">
<title>CloukitCommonModule&#45;&gt;CloukitHasFocusDirective </title>
<path fill="none" stroke="#000000" stroke-dasharray="5,2" d="M298.2193,-114.1061C298.2193,-114.1061 298.2193,-132.991 298.2193,-132.991"/>
<polygon fill="#000000" stroke="#000000" points="294.7194,-132.9909 298.2193,-142.991 301.7194,-132.991 294.7194,-132.9909"/>
</g>
<!-- CloukitCommonModule&#45;&gt;CloukitClickOutsideDirective  -->
<g id="edge2" class="edge">
<title>CloukitCommonModule&#45;&gt;CloukitClickOutsideDirective </title>
<path fill="none" stroke="#000000" stroke-dasharray="5,2" d="M212.4487,-114.1061C212.4487,-114.1061 212.4487,-132.991 212.4487,-132.991"/>
<polygon fill="#000000" stroke="#000000" points="208.9487,-132.9909 212.4487,-142.991 215.9487,-132.991 208.9487,-132.9909"/>
</g>
</g>
</svg>
