<?xml version="1.0" encoding="UTF-8" standalone="no"?>
<!DOCTYPE svg PUBLIC "-//W3C//DTD SVG 1.1//EN"
 "http://www.w3.org/Graphics/SVG/1.1/DTD/svg11.dtd">
<!-- Generated by graphviz version 2.40.1 (20161225.0304)
 -->
<!-- Title: dependencies Pages: 1 -->
<svg width="1080pt" height="284pt"
 viewBox="0.00 0.00 1080.00 284.00" xmlns="http://www.w3.org/2000/svg" xmlns:xlink="http://www.w3.org/1999/xlink">
<g id="graph0" class="graph" transform="scale(1 1) rotate(0) translate(4 280)">
<title>dependencies</title>
<polygon fill="#ffffff" stroke="transparent" points="-4,4 -4,-280 1076,-280 1076,4 -4,4"/>
<text text-anchor="start" x="515.0091" y="-42.4" font-family="sans-serif" font-weight="bold" font-size="14.00" fill="#000000">Legend</text>
<polygon fill="#ffffb3" stroke="transparent" points="302,-10 302,-30 322,-30 322,-10 302,-10"/>
<text text-anchor="start" x="325.629" y="-15.4" font-family="sans-serif" font-size="14.00" fill="#000000"> &#160;Declarations</text>
<polygon fill="#8dd3c7" stroke="transparent" points="415,-10 415,-30 435,-30 435,-10 415,-10"/>
<text text-anchor="start" x="438.7251" y="-15.4" font-family="sans-serif" font-size="14.00" fill="#000000"> &#160;Module</text>
<polygon fill="#80b1d3" stroke="transparent" points="501,-10 501,-30 521,-30 521,-10 501,-10"/>
<text text-anchor="start" x="524.7812" y="-15.4" font-family="sans-serif" font-size="14.00" fill="#000000"> &#160;Bootstrap</text>
<polygon fill="#fdb462" stroke="transparent" points="598,-10 598,-30 618,-30 618,-10 598,-10"/>
<text text-anchor="start" x="621.6732" y="-15.4" font-family="sans-serif" font-size="14.00" fill="#000000"> &#160;Providers</text>
<polygon fill="#fb8072" stroke="transparent" points="694,-10 694,-30 714,-30 714,-10 694,-10"/>
<text text-anchor="start" x="717.7258" y="-15.4" font-family="sans-serif" font-size="14.00" fill="#000000"> &#160;Exports</text>
<g id="clust1" class="cluster">
<title>cluster_DemoModule</title>
<polygon fill="none" stroke="#000000" stroke-dasharray="1,5" points="8,-70 8,-268 1064,-268 1064,-70 8,-70"/>
</g>
<g id="clust2" class="cluster">
<title>cluster_DemoModule_declarations</title>
<polygon fill="none" stroke="#000000" points="636,-78 636,-130 1056,-130 1056,-78 636,-78"/>
</g>
<g id="clust6" class="cluster">
<title>cluster_DemoModule_imports</title>
<polygon fill="none" stroke="#000000" points="16,-78 16,-130 628,-130 628,-78 16,-78"/>
</g>
<g id="clust7" class="cluster">
<title>cluster_DemoModule_exports</title>
<polygon fill="none" stroke="#000000" points="496,-208 496,-260 632,-260 632,-208 496,-208"/>
</g>
<!-- DemoComponent -->
<g id="node1" class="node">
<title>DemoComponent</title>
<polygon fill="#ffffb3" stroke="#000000" points="1047.5451,-122 932.4549,-122 932.4549,-86 1047.5451,-86 1047.5451,-122"/>
<text text-anchor="middle" x="990" y="-99.8" font-family="Times,serif" font-size="14.00" fill="#000000">DemoComponent</text>
</g>
<!-- DemoModule -->
<g id="node4" class="node">
<title>DemoModule</title>
<polygon fill="#8dd3c7" stroke="#000000" points="610.7619,-187 607.7619,-191 586.7619,-191 583.7619,-187 517.2381,-187 517.2381,-151 610.7619,-151 610.7619,-187"/>
<text text-anchor="middle" x="564" y="-164.8" font-family="Times,serif" font-size="14.00" fill="#000000">DemoModule</text>
</g>
<!-- DemoComponent&#45;&gt;DemoModule -->
<g id="edge1" class="edge">
<title>DemoComponent&#45;&gt;DemoModule</title>
<path fill="none" stroke="#000000" d="M990,-122.2921C990,-144.2057 990,-178 990,-178 990,-178 620.808,-178 620.808,-178"/>
<polygon fill="#000000" stroke="#000000" points="620.8081,-174.5001 610.808,-178 620.808,-181.5001 620.8081,-174.5001"/>
</g>
<!-- Story00Component -->
<g id="node2" class="node">
<title>Story00Component</title>
<polygon fill="#ffffb3" stroke="#000000" points="913.6666,-122 788.3334,-122 788.3334,-86 913.6666,-86 913.6666,-122"/>
<text text-anchor="middle" x="851" y="-99.8" font-family="Times,serif" font-size="14.00" fill="#000000">Story00Component</text>
</g>
<!-- Story00Component&#45;&gt;DemoModule -->
<g id="edge2" class="edge">
<title>Story00Component&#45;&gt;DemoModule</title>
<path fill="none" stroke="#000000" d="M851,-122.1061C851,-141.3391 851,-169 851,-169 851,-169 621.0708,-169 621.0708,-169"/>
<polygon fill="#000000" stroke="#000000" points="621.0709,-165.5001 611.0708,-169 621.0708,-172.5001 621.0709,-165.5001"/>
</g>
<!-- Story01Component -->
<g id="node3" class="node">
<title>Story01Component</title>
<polygon fill="#ffffb3" stroke="#000000" points="769.6666,-122 644.3334,-122 644.3334,-86 769.6666,-86 769.6666,-122"/>
<text text-anchor="middle" x="707" y="-99.8" font-family="Times,serif" font-size="14.00" fill="#000000">Story01Component</text>
</g>
<!-- Story01Component&#45;&gt;DemoModule -->
<g id="edge3" class="edge">
<title>Story01Component&#45;&gt;DemoModule</title>
<path fill="none" stroke="#000000" d="M707,-122.027C707,-138.3976 707,-160 707,-160 707,-160 620.8235,-160 620.8235,-160"/>
<polygon fill="#000000" stroke="#000000" points="620.8236,-156.5001 610.8235,-160 620.8235,-163.5001 620.8236,-156.5001"/>
</g>
<!-- DemoComponent  -->
<g id="node9" class="node">
<title>DemoComponent </title>
<polygon fill="#fb8072" stroke="#000000" points="623.5442,-252 504.4558,-252 504.4558,-216 623.5442,-216 623.5442,-252"/>
<text text-anchor="middle" x="564" y="-229.8" font-family="Times,serif" font-size="14.00" fill="#000000">DemoComponent </text>
</g>
<!-- DemoModule&#45;&gt;DemoComponent  -->
<g id="edge8" class="edge">
<title>DemoModule&#45;&gt;DemoComponent </title>
<path fill="none" stroke="#000000" stroke-dasharray="5,2" d="M564,-187.1061C564,-187.1061 564,-205.991 564,-205.991"/>
<polygon fill="#000000" stroke="#000000" points="560.5001,-205.9909 564,-215.991 567.5001,-205.991 560.5001,-205.9909"/>
</g>
<!-- CommonModule -->
<g id="node5" class="node">
<title>CommonModule</title>
<polygon fill="#8dd3c7" stroke="#000000" points="619.6681,-122 616.6681,-126 595.6681,-126 592.6681,-122 508.3319,-122 508.3319,-86 619.6681,-86 619.6681,-122"/>
<text text-anchor="middle" x="564" y="-99.8" font-family="Times,serif" font-size="14.00" fill="#000000">CommonModule</text>
</g>
<!-- CommonModule&#45;&gt;DemoModule -->
<g id="edge4" class="edge">
<title>CommonModule&#45;&gt;DemoModule</title>
<path fill="none" stroke="#000000" d="M564,-122.1061C564,-122.1061 564,-140.991 564,-140.991"/>
<polygon fill="#000000" stroke="#000000" points="560.5001,-140.9909 564,-150.991 567.5001,-140.991 560.5001,-140.9909"/>
</g>
<!-- ReactiveFormsModule -->
<g id="node6" class="node">
<title>ReactiveFormsModule</title>
<polygon fill="#8dd3c7" stroke="#000000" points="490.3047,-122 487.3047,-126 466.3047,-126 463.3047,-122 345.6953,-122 345.6953,-86 490.3047,-86 490.3047,-122"/>
<text text-anchor="middle" x="418" y="-99.8" font-family="Times,serif" font-size="14.00" fill="#000000">ReactiveFormsModule</text>
</g>
<!-- ReactiveFormsModule&#45;&gt;DemoModule -->
<g id="edge5" class="edge">
<title>ReactiveFormsModule&#45;&gt;DemoModule</title>
<path fill="none" stroke="#000000" d="M418,-122.027C418,-138.3976 418,-160 418,-160 418,-160 507.001,-160 507.001,-160"/>
<polygon fill="#000000" stroke="#000000" points="507.0011,-163.5001 517.001,-160 507.001,-156.5001 507.0011,-163.5001"/>
</g>
<!-- CloukitCommonModule -->
<g id="node7" class="node">
<title>CloukitCommonModule</title>
<polygon fill="#8dd3c7" stroke="#000000" points="327.6763,-122 324.6763,-126 303.6763,-126 300.6763,-122 174.3237,-122 174.3237,-86 327.6763,-86 327.6763,-122"/>
<text text-anchor="middle" x="251" y="-99.8" font-family="Times,serif" font-size="14.00" fill="#000000">CloukitCommonModule</text>
</g>
<!-- CloukitCommonModule&#45;&gt;DemoModule -->
<g id="edge6" class="edge">
<title>CloukitCommonModule&#45;&gt;DemoModule</title>
<path fill="none" stroke="#000000" d="M251,-122.1061C251,-141.3391 251,-169 251,-169 251,-169 507.1407,-169 507.1407,-169"/>
<polygon fill="#000000" stroke="#000000" points="507.1408,-172.5001 517.1407,-169 507.1407,-165.5001 507.1408,-172.5001"/>
</g>
<!-- CloukitStoryModule -->
<g id="node8" class="node">
<title>CloukitStoryModule</title>
<polygon fill="#8dd3c7" stroke="#000000" points="155.892,-122 152.892,-126 131.892,-126 128.892,-122 24.108,-122 24.108,-86 155.892,-86 155.892,-122"/>
<text text-anchor="middle" x="90" y="-99.8" font-family="Times,serif" font-size="14.00" fill="#000000">CloukitStoryModule</text>
</g>
<!-- CloukitStoryModule&#45;&gt;DemoModule -->
<g id="edge7" class="edge">
<title>CloukitStoryModule&#45;&gt;DemoModule</title>
<path fill="none" stroke="#000000" d="M90,-122.2921C90,-144.2057 90,-178 90,-178 90,-178 506.8182,-178 506.8182,-178"/>
<polygon fill="#000000" stroke="#000000" points="506.8182,-181.5001 516.8182,-178 506.8181,-174.5001 506.8182,-181.5001"/>
</g>
</g>
</svg>
